<svg xmlns="http://www.w3.org/2000/svg" width="1200" height="300" viewBox="0 0 1200 300" role="img"><defs><marker id="a" viewBox="0 0 10 10" refX="9" refY="5" markerWidth="6" markerHeight="6" orient="auto-start-reverse"><path d="M 0 0 L 10 5 L 0 10 z" fill="#6B645E"/></marker><marker id="ar" viewBox="0 0 10 10" refX="9" refY="5" markerWidth="6" markerHeight="6" orient="auto-start-reverse"><path d="M 0 0 L 10 5 L 0 10 z" fill="#E30A17"/></marker></defs><rect width="1200" height="300" rx="14" fill="#1C1917"/><rect width="1200" height="3" fill="#E30A17" rx="1.5"/><circle cx="600" cy="86" r="120" fill="#E30A17" opacity="0.05"/><g transform="translate(566,44) scale(0.5667)"><path d="M 14 66 A 46 46 0 0 0 106 66 Z" fill="#FAF6F1"/><circle cx="60" cy="34" r="10" fill="#E30A17"/></g><text x="600" y="178" font-family="system-ui, -apple-system, Segoe UI, Roboto, Helvetica, sans-serif" font-size="60" font-weight="700" fill="#FAF6F1" text-anchor="middle" letter-spacing="-1">usturlab</text><text x="600" y="212" font-family="system-ui, -apple-system, Segoe UI, Roboto, Helvetica, sans-serif" font-size="18" font-weight="400" fill="#9A938C" text-anchor="middle">Route every AI coding task to the best subscription you own.</text><rect x="312" y="244" width="126" height="30" rx="15" fill="#221E1B" stroke="#3A3532" stroke-width="1"/><circle cx="328" cy="259" r="5" fill="#D97757"/><text x="340" y="264" font-family="ui-monospace, SFMono-Regular, Menlo, Consolas, monospace" font-size="14" font-weight="400" fill="#9A938C">claude × 2</text><rect x="450" y="244" width="83" height="30" rx="15" fill="#221E1B" stroke="#3A3532" stroke-width="1"/><circle cx="466" cy="259" r="5" fill="#10A37F"/><text x="478" y="264" font-family="ui-monospace, SFMono-Regular, Menlo, Consolas, monospace" font-size="14" font-weight="400" fill="#9A938C">codex</text><rect x="545" y="244" width="92" height="30" rx="15" fill="#221E1B" stroke="#3A3532" stroke-width="1"/><circle cx="561" cy="259" r="5" fill="#4E8CF9"/><text x="573" y="264" font-family="ui-monospace, SFMono-Regular, Menlo, Consolas, monospace" font-size="14" font-weight="400" fill="#9A938C">gemini</text><rect x="649" y="244" width="100" height="30" rx="15" fill="#221E1B" stroke="#3A3532" stroke-width="1"/><circle cx="665" cy="259" r="5" fill="#8957E5"/><text x="677" y="264" font-family="ui-monospace, SFMono-Regular, Menlo, Consolas, monospace" font-size="14" font-weight="400" fill="#9A938C">copilot</text><rect x="761" y="244" width="126" height="30" rx="15" fill="#221E1B" stroke="#3A3532" stroke-width="1"/><circle cx="777" cy="259" r="5" fill="#6E7A8A"/><text x="789" y="264" font-family="ui-monospace, SFMono-Regular, Menlo, Consolas, monospace" font-size="14" font-weight="400" fill="#9A938C">openrouter</text></svg>